# xmcd
#
# Track frame offsets:
#	150
#	14416
#	36000
#	51551
#	69880
#	82129
#	97316
#	113699
#	129767
#	145702
#	167571
#	181239
#	194744
#	207493
#	223399
#	240792
#	255715
#	274814
#
# Disc length: 4069 seconds
#
# Revision: 1
# Processed by: cddbd v1.5.2PL0 Copyright (c) Steve Scherf et al.
# Submitted via: audiograbber 1.83.01
#
DISCID=0c0fe312
DTITLE=Kandis - 20 Års Jubilæum
DYEAR=2009
DGENRE=Pop
TTITLE0=Let´s Go Party
TTITLE1=Det´Dit Navn - Kandis/Ein Stern - Dj Øtzi
TTITLE2=Flyv Prinsesse
TTITLE3=Rock Medley - Kandis Og Git Persson
TTITLE4=En Lille Ring Af Guld
TTITLE5=Da Country Kom Til Thisted
TTITLE6=Living Next Door To Alice - Smokie
TTITLE7=Vild Med Dans
TTITLE8=En Fyr Fra Landet
TTITLE9=The Fields Of Athenry - Kandis Og Johnny Logan
TTITLE10=Lonnie Fra Berlin
TTITLE11=Venner Som Jer
TTITLE12=Blue Jeans I New Orleans
TTITLE13=Vores Bryllupsdag - Kandis Og Git Persson
TTITLE14=Skagens Solnedgang
TTITLE15=Det Smil Som Du Gav
TTITLE16=Linedancebølgen
TTITLE17=Kandis Hitmedley
EXTD=
EXTT0=
EXTT1=
EXTT2=
EXTT3=
EXTT4=
EXTT5=
EXTT6=
EXTT7=
EXTT8=
EXTT9=
EXTT10=
EXTT11=
EXTT12=
EXTT13=
EXTT14=
EXTT15=
EXTT16=
EXTT17=
PLAYORDER=
